HIERARCHY
ROOT Bip001_Pelvis
{
  OFFSET 34.4345 95.6767 -26.8758
  CHANNELS 6 Xposition Yposition Zposition Zrotation Xrotation Yrotation
  JOINT Bip001_Spine
  {
    OFFSET 1.4188e-005 10.2191 -0.0116013
    CHANNELS 3 Zrotation Xrotation Yrotation
    JOINT Bip001_L_Thigh
    {
      OFFSET 11.0458 -10.2192 0.0116197
      CHANNELS 3 Zrotation Xrotation Yrotation
      JOINT Bip001_L_Calf
      {
        OFFSET -0.707118 -44.0221 0.360014
        CHANNELS 3 Zrotation Xrotation Yrotation
        JOINT Bip001_L_Foot
        {
          OFFSET -0.651902 -40.5938 -3.56146
          CHANNELS 3 Zrotation Xrotation Yrotation
          JOINT Bip001_L_Toe0
          {
            OFFSET 0.0530839 -10.2181 13.1504
            CHANNELS 3 Zrotation Xrotation Yrotation
            End Site
            {
              OFFSET -1.02532e-005 0 7.55606
            }
          }
        }
      }
    }
    JOINT Bip001_R_Thigh
    {
      OFFSET -11.0458 -10.2191 0.0115893
      CHANNELS 3 Zrotation Xrotation Yrotation
      JOINT Bip001_R_Calf
      {
        OFFSET 0.706994 -44.0221 0.35984
        CHANNELS 3 Zrotation Xrotation Yrotation
        JOINT Bip001_R_Foot
        {
          OFFSET 0.651786 -40.5938 -3.5613
          CHANNELS 3 Zrotation Xrotation Yrotation
          JOINT Bip001_R_Toe0
          {
            OFFSET -0.0531479 -10.2181 13.1504
            CHANNELS 3 Zrotation Xrotation Yrotation
            End Site
            {
              OFFSET -1.02894e-005 0 7.55606
            }
          }
        }
      }
    }
    JOINT Bip001_Spine1
    {
      OFFSET 1.87041e-005 14.5736 1.08638
      CHANNELS 3 Zrotation Xrotation Yrotation
      JOINT Bip001_Spine2
      {
        OFFSET 2.24614e-005 14.5058 -1.69078
        CHANNELS 3 Zrotation Xrotation Yrotation
        JOINT Bip001_Neck
        {
          OFFSET 2.20278e-005 15.3945 -0.489414
          CHANNELS 3 Zrotation Xrotation Yrotation
          JOINT Bip001_L_Clavicle
          {
            OFFSET 6.06036 -0.000579998 0.00836775
            CHANNELS 3 Zrotation Xrotation Yrotation
            JOINT Bip001_L_UpperArm
            {
              OFFSET 11.5509 -0.0600302 0.00193952
              CHANNELS 3 Zrotation Xrotation Yrotation
              JOINT Bip001_L_Forearm
              {
                OFFSET 25.9523 0.0806089 -2.15551
                CHANNELS 3 Zrotation Xrotation Yrotation
                JOINT Bip001_L_Hand
                {
                  OFFSET 32.2475 0.153767 1.63968
                  CHANNELS 3 Zrotation Xrotation Yrotation
                  JOINT Bip001_L_Finger0
                  {
                    OFFSET 6.04639 -2.20976 5.90322
                    CHANNELS 3 Zrotation Xrotation Yrotation
                    End Site
                    {
                      OFFSET 4.22375 -1.43895 0.606485
                    }
                  }
                  JOINT Bip001_L_Finger1
                  {
                    OFFSET 11.0826 -0.704819 -0.198153
                    CHANNELS 3 Zrotation Xrotation Yrotation
                    End Site
                    {
                      OFFSET 6.20027 -0.397518 -0.0787166
                    }
                  }
                }
              }
            }
          }
          JOINT Bip001_R_Clavicle
          {
            OFFSET -6.06037 -0.000563197 0.00835105
            CHANNELS 3 Zrotation Xrotation Yrotation
            JOINT Bip001_R_UpperArm
            {
              OFFSET -11.5509 -0.0599978 0.00190698
              CHANNELS 3 Zrotation Xrotation Yrotation
              JOINT Bip001_R_Forearm
              {
                OFFSET -25.9523 0.0806822 -2.15589
                CHANNELS 3 Zrotation Xrotation Yrotation
                JOINT Bip001_R_Hand
                {
                  OFFSET -32.2475 0.153859 1.63989
                  CHANNELS 3 Zrotation Xrotation Yrotation
                  JOINT Bip001_R_Finger0
                  {
                    OFFSET -6.04641 -2.20976 5.90317
                    CHANNELS 3 Zrotation Xrotation Yrotation
                    End Site
                    {
                      OFFSET -4.22376 -1.43895 0.60647
                    }
                  }
                  JOINT Bip001_R_Finger1
                  {
                    OFFSET -11.0826 -0.704794 -0.198182
                    CHANNELS 3 Zrotation Xrotation Yrotation
                    End Site
                    {
                      OFFSET -6.20028 -0.397504 -0.0787333
                    }
                  }
                }
              }
            }
          }
          JOINT Bip001_Head
          {
            OFFSET 1.09673e-005 11.2744 2.05948
            CHANNELS 3 Zrotation Xrotation Yrotation
            End Site
            {
              OFFSET 2.89576e-005 20.8808 -2.77728e-005
            }
          }
        }
      }
    }
  }
}
MOTION
Frames:	8
Frame Time:	0.04
33.2764 95.5109 -29.8065 0.0785286 -0.349154 -5.19131 0.294746 2.30709 -0.931302 5.90014 -1.34984 15.2145 -0.233333 9.13932 1.52643 -1.73955 -6.84049 0.0513913 0.557144 -3.05725 -0.185228 -5.33072 -5.86341 0.350918 0.21181 13.1485 1.74264 -6.82383 -8.78374 0.0277854 2.93347 -10.1023 3.64829 0.627778 4.60904 -1.87676 0.62778 4.60905 -1.87676 6.6346 -8.80265 1.73199 -29.5778 10.9297 -1.95283 -52.6248 42.9877 2.78297 16.8816 -2.3183 -28.8558 8.22514 1.78896 -5.08363 0 0 -1.59028e-015 -3.18055e-015 3.18056e-015 -1.59028e-015 20.7332 15.8943 16.7647 56.9548 7.90752 -14.2494 -35.4728 17.1571 29.9552 -1.17371 -5.96391 6.6123 -1.59028e-015 9.54166e-015 3.18055e-015 -1.59028e-015 9.54167e-015 3.18055e-015 -4.32834 -6.01905 3.9035 
33.0621 95.2339 -29.945 0.218886 -0.226211 -7.09434 0.408471 2.28391 -1.28505 5.68814 -1.72631 15.3645 -0.504978 10.1064 2.58885 2.47467 -4.87883 0.0367622 1.94585 -5.91797 -1.0744 -5.217 -7.56761 2.19171 0.16054 15.44 2.44366 -7.51313 -9.6554 -0.32647 3.01456 -10.3822 3.79629 0.86174 4.55805 -2.58971 0.869248 4.55828 -2.58944 6.06642 -7.69242 3.6662 -28.465 10.6329 -3.39009 -53.3237 43.7677 2.93787 17.24 -1.27426 -28.8387 6.69968 2.16191 -4.32079 6.36111e-015 1.59028e-015 7.95139e-016 3.18055e-015 0 -0 21.2095 13.4353 13.4104 58.0537 9.31204 -14.3278 -31.185 13.7831 25.0123 -0.156035 -5.30228 4.09759 -1.76556e-031 6.36111e-015 1.59028e-015 -1.59028e-015 6.36111e-015 1.59028e-015 -3.76788 -7.18285 5.59541 
32.8688 94.9738 -29.9045 0.533998 -0.776868 -9.21258 0.426982 2.38659 -1.49849 5.54919 -1.62292 15.5383 -0.558483 12.0274 4.68413 -0.119994 -7.36485 0.0714782 0.874653 -4.52014 -0.274551 -5.22435 -8.7918 3.09246 -0.277685 17.9549 2.84702 -7.76423 -10.7903 0.564618 3.06761 -10.5809 3.91233 0.916193 4.76111 -3.01866 0.917544 4.76112 -3.01866 5.60344 -7.00202 5.32162 -27.8085 10.7131 -4.92444 -53.8698 44.4851 3.61453 17.6819 -0.981281 -29.0536 6.67895 1.77371 -4.44873 -3.18055e-015 -1.59028e-015 -0 -0 -3.18056e-015 -0 21.3421 11.2307 9.43094 59.1135 13.8718 -13.7252 -25.5667 5.2121 20.4566 -1.01223 -5.98461 0.554833 -5.56597e-015 6.36111e-015 -3.18055e-015 -3.57812e-015 3.18056e-015 -1.59028e-015 -3.20741 -7.95129 7.03838 
32.6257 94.7095 -29.7943 0.571705 -1.82064 -11.0737 0.439719 2.5655 -1.5913 5.44623 -0.796904 15.121 -0.985018 13.0783 6.39182 0.831186 -7.50664 0.0797342 0.924097 -5.22911 -0.19647 -5.09394 -9.26547 4.20223 -0.49399 20.0812 3.34764 -8.05594 -11.7332 0.863132 3.08549 -10.6198 3.91275 0.96139 5.11758 -3.20704 0.96174 5.11758 -3.20715 5.26452 -6.16338 6.50825 -27.2722 10.6484 -6.89832 -53.9849 44.6165 3.63162 17.2917 -1.28571 -28.5885 7.67807 1.50144 -4.60429 -3.18055e-015 -3.18055e-015 7.95139e-016 -3.18055e-015 -1.59028e-015 7.95139e-016 21.7314 9.20677 6.27728 58.9567 16.4793 -12.6086 -22.4678 -0.011846 17.1233 -0.596524 -6.8494 -0.52757 -2.13693e-015 3.18055e-015 -5.96354e-016 1.78906e-015 3.18056e-015 1.98785e-016 -2.77424 -8.64693 8.09745 
32.3211 94.3555 -29.7566 0.326499 -2.83163 -12.5887 0.450699 2.77012 -1.62406 5.84767 -0.401641 16.3069 -1.26373 14.9076 6.1001 2.22962 -7.83987 0.0979409 1.15226 -6.28413 -0.120567 -4.74546 -9.6988 5.39119 -0.409426 22.2294 3.64226 -8.49782 -12.7275 0.834564 3.15048 -10.7304 3.86201 0.977878 5.52621 -3.28697 0.97673 5.52623 -3.28687 5.39566 -5.85827 7.3856 -26.4417 10.7784 -8.32421 -54.2178 44.3705 2.52532 16.7963 -1.67556 -27.7383 7.61004 1.55628 -4.47585 3.18055e-015 4.77083e-015 1.59028e-015 3.18055e-015 4.77083e-015 -0 22.1002 8.15147 4.05065 58.4267 17.0071 -11.998 -21.548 -1.11736 15.419 0.553275 -7.44092 -1.10377 7.10655e-015 -1.59028e-015 -7.95139e-016 8.89561e-015 1.59028e-015 -3.97569e-016 -2.52314 -9.02356 8.96353 
32.0434 93.9289 -29.8395 0.0997999 -3.44001 -13.8382 0.455525 2.87988 -1.62363 6.47597 -0.692991 16.8332 -1.87716 17.2804 6.26985 4.29895 -7.92793 0.128743 1.48626 -7.63682 -0.0833287 -4.34523 -10.5973 6.29811 -0.300068 24.6935 3.90868 -8.96454 -13.7525 0.720523 3.18285 -10.8066 3.8723 0.994386 5.74558 -3.27389 0.994387 5.74559 -3.27389 5.89046 -5.36007 7.96469 -25.9458 10.6046 -9.54128 -54.5157 43.5969 1.43461 16.7318 -1.12046 -27.1051 7.89957 1.52428 -4.38385 3.18055e-015 2.38542e-015 -3.97569e-016 6.36111e-015 2.38542e-015 -1.59028e-015 22.4988 7.108 2.35113 57.2477 16.4341 -11.6868 -20.6551 -2.46497 15.0975 1.85564 -7.13465 -1.50992 -1.93815e-015 -7.95139e-016 -7.95139e-016 6.95746e-016 -1.59028e-015 -7.95139e-016 -2.6933 -9.73048 9.71115 
31.8959 93.3746 -29.9443 0.153911 -3.96547 -14.8438 0.429689 2.97864 -1.64684 6.85192 -1.60914 15.613 -2.83129 20.3908 8.37444 5.50683 -8.74469 0.182802 1.57394 -8.16324 0.146095 -4.1246 -11.9542 7.55227 -0.0264753 27.8353 4.24846 -9.70571 -14.8656 -0.113758 3.24769 -10.9687 3.90166 0.947885 5.94349 -3.31908 0.947291 5.94347 -3.32098 5.97168 -4.75045 8.55661 -25.2788 10.3068 -10.7818 -54.4294 41.8865 0.336165 16.3469 -0.961785 -27.4769 7.5057 1.72955 -4.06965 3.18055e-015 -1.59028e-015 -1.98785e-015 0 0 -1.59028e-015 22.7846 6.10047 1.36225 56.4382 13.6832 -11.1082 -20.7396 -2.41295 15.5354 1.74312 -7.27132 -0.903826 8.75895e-015 0 7.95139e-016 7.20594e-015 1.98785e-016 -0 -2.5986 -10.6837 10.3321 
31.4987 92.6929 -30.0077 -0.859492 -4.87328 -15.1205 0.602591 3.2502 -1.85307 8.63845 -2.5072 16.0365 -3.67187 24.8684 8.50439 5.36499 -11.0176 0.293153 1.53386 -8.16957 0.26295 -2.88932 -12.3089 9.0318 0.260559 30.4363 4.31435 -10.6098 -15.7898 -1.51859 3.3129 -11.1388 3.9432 1.31348 6.47884 -3.7494 1.31347 6.47885 -3.74939 5.60196 -4.53664 9.34528 -24.5229 10.3035 -11.5023 -54.1508 41.0974 -0.434329 16.4507 -1.75858 -28.3648 7.52382 1.69874 -4.22277 3.18055e-015 0 -2.38542e-015 2.20695e-032 7.95139e-016 -1.59028e-015 23.4888 5.51751 0.70923 56.3227 10.5385 -11.5936 -21.0481 -5.48365 18.8707 -1.78289 -6.91409 -1.68287 7.95139e-015 0 -0 6.95746e-015 -7.95139e-016 -7.95139e-016 -2.1697 -11.1845 10.9706 
